<?xml version="1.0" encoding="UTF-8" standalone="no"?>
<svg
   height="24"
   viewBox="0 -960 960 960"
   width="24"
   version="1.1"
   id="svg4"
   sodipodi:docname="save_FILL0_wght400_GRAD0_opsz24.svg"
   inkscape:version="1.2 (dc2aeda, 2022-05-15)"
   xmlns:inkscape="http://www.inkscape.org/namespaces/inkscape"
   xmlns:sodipodi="http://sodipodi.sourceforge.net/DTD/sodipodi-0.dtd"
   xmlns="http://www.w3.org/2000/svg"
   xmlns:svg="http://www.w3.org/2000/svg">
  <defs
     id="defs8" />
  <sodipodi:namedview
     id="namedview6"
     pagecolor="#ffffff"
     bordercolor="#000000"
     borderopacity="0.25"
     inkscape:showpageshadow="2"
     inkscape:pageopacity="0.0"
     inkscape:pagecheckerboard="0"
     inkscape:deskcolor="#d1d1d1"
     showgrid="false"
     inkscape:zoom="6.9557601"
     inkscape:cx="65.988475"
     inkscape:cy="41.83583"
     inkscape:window-width="1680"
     inkscape:window-height="1050"
     inkscape:window-x="0"
     inkscape:window-y="0"
     inkscape:window-maximized="0"
     inkscape:current-layer="svg4" />
  <path
     d="m 840,-680 v 480 c 0,22 -7.83333,40.83333 -23.5,56.5 C 800.83333,-127.83333 782,-120 760,-120 H 200 c -22,0 -40.83333,-7.83333 -56.5,-23.5 C 127.83333,-159.16667 120,-178 120,-200 v -560 c 0,-22 7.83333,-40.83333 23.5,-56.5 15.66667,-15.66667 34.5,-23.5 56.5,-23.5 h 480 z m -80,34 -114,-114 H 200 v 560 h 560 z m -520,86 H 600 V -720 H 240 Z m -40,-86 v 446 -560 z"
     id="path2"
     sodipodi:nodetypes="csssssssssccccccccccccccccc" />
</svg>
