<?xml version="1.0" encoding="UTF-8" standalone="no"?>
<svg
   height="24"
   viewBox="0 -960 960 960"
   width="24"
   version="1.1"
   id="svg422"
   sodipodi:docname="unlock.svg"
   inkscape:version="1.2 (dc2aeda, 2022-05-15)"
   xmlns:inkscape="http://www.inkscape.org/namespaces/inkscape"
   xmlns:sodipodi="http://sodipodi.sourceforge.net/DTD/sodipodi-0.dtd"
   xmlns="http://www.w3.org/2000/svg"
   xmlns:svg="http://www.w3.org/2000/svg">
  <defs
     id="defs426" />
  <sodipodi:namedview
     id="namedview424"
     pagecolor="#ffffff"
     bordercolor="#000000"
     borderopacity="0.25"
     inkscape:showpageshadow="2"
     inkscape:pageopacity="0.0"
     inkscape:pagecheckerboard="0"
     inkscape:deskcolor="#d1d1d1"
     showgrid="false"
     inkscape:zoom="9.8333333"
     inkscape:cx="-20.389831"
     inkscape:cy="11.79661"
     inkscape:window-width="1680"
     inkscape:window-height="912"
     inkscape:window-x="0"
     inkscape:window-y="25"
     inkscape:window-maximized="0"
     inkscape:current-layer="svg422" />
  <path
     d="m 230.304,-645.252 h 374.544 v -104.04 c 0,-34.68 -12.138,-64.158 -36.414,-88.434 -24.276,-24.276 -53.754,-36.414 -88.434,-36.414 -34.68,0 -64.158,12.138 -88.434,36.414 -24.276,24.276 -36.414,74.562 -36.414,109.242 H 271.92 c 0,-57.5688 20.2878,-127.449 60.8634,-168.0246 40.5756,-40.5756 89.6478,-60.8634 147.2166,-60.8634 57.5688,0 106.641,20.2878 147.2166,60.8634 40.5756,40.5756 60.8634,89.6478 60.8634,147.2166 v 104.04 h 41.616 c 22.8888,0 42.483,8.1498 58.7826,24.4494 16.2996,16.2996 24.4494,35.8938 24.4494,58.7826 v 416.16 c 0,22.8888 -8.1498,42.483 -24.4494,58.7826 -16.2996,16.299603 -35.8938,24.4494 -58.7826,24.4494 H 230.304 c -22.8888,0 -42.483,-8.149797 -58.7826,-24.4494 -16.2996,-16.2996 -24.4494,-35.8938 -24.4494,-58.7826 v -416.16 c 0,-22.8888 8.1498,-42.483 24.4494,-58.7826 16.2996,-16.2996 35.8938,-24.4494 58.7826,-24.4494 z m 0,499.392 H 729.696 V -562.02 H 230.304 Z m 0,0 v -416.16 z"
     id="path420"
     sodipodi:nodetypes="scssssccsssscsssssssssssscccccccc"
     style="stroke-width:1.0404" />
</svg>
