<?xml version="1.0" encoding="UTF-8" standalone="no"?>
<svg
   height="24"
   viewBox="0 -960 960 960"
   width="24"
   version="1.1"
   id="svg422"
   sodipodi:docname="lock_open_FILL0_wght400_GRAD0_opsz24.svg"
   inkscape:version="1.2 (dc2aeda, 2022-05-15)"
   xmlns:inkscape="http://www.inkscape.org/namespaces/inkscape"
   xmlns:sodipodi="http://sodipodi.sourceforge.net/DTD/sodipodi-0.dtd"
   xmlns="http://www.w3.org/2000/svg"
   xmlns:svg="http://www.w3.org/2000/svg">
  <defs
     id="defs426" />
  <sodipodi:namedview
     id="namedview424"
     pagecolor="#ffffff"
     bordercolor="#000000"
     borderopacity="0.25"
     inkscape:showpageshadow="2"
     inkscape:pageopacity="0.0"
     inkscape:pagecheckerboard="0"
     inkscape:deskcolor="#d1d1d1"
     showgrid="false"
     inkscape:zoom="9.8333333"
     inkscape:cx="12"
     inkscape:cy="12"
     inkscape:window-width="1680"
     inkscape:window-height="1022"
     inkscape:window-x="0"
     inkscape:window-y="28"
     inkscape:window-maximized="0"
     inkscape:current-layer="svg422" />
  <path
     d="m 240,-640 h 360 v -80 c 0,-33.33333 -11.66667,-61.66667 -35,-85 -23.33333,-23.33333 -51.66667,-35 -85,-35 -33.33333,0 -61.66667,11.66667 -85,35 -23.33333,23.33333 -35,51.66667 -35,85 h -80 c 0,-55.33333 19.5,-102.5 58.5,-141.5 39,-39 86.16667,-58.5 141.5,-58.5 55.33333,0 102.5,19.5 141.5,58.5 39,39 58.5,86.16667 58.5,141.5 v 80 h 40 c 22,0 40.83333,7.83333 56.5,23.5 15.66667,15.66667 23.5,34.5 23.5,56.5 v 360 c 0,22 -7.83333,40.83333 -23.5,56.5 C 760.83333,-127.83333 742,-120 720,-120 H 240 c -22,0 -40.83333,-7.83333 -56.5,-23.5 C 167.83333,-159.16667 160,-178 160,-200 v -360 c 0,-22 7.83333,-40.83333 23.5,-56.5 15.66667,-15.66667 34.5,-23.5 56.5,-23.5 z m 0,440 H 720 V -560 H 240 Z m 0,0 v -360 z"
     id="path420"
     sodipodi:nodetypes="scssssccsssscsssssssssssscccccccc" />
</svg>
